<?xml version="1.0" encoding="utf-8"?>
<!-- Generator: Adobe Illustrator 24.2.1, SVG Export Plug-In . SVG Version: 6.00 Build 0)  -->
<svg width="190px" height="80px" version="1.1" id="Layer_1" xmlns="http://www.w3.org/2000/svg" xmlns:xlink="http://www.w3.org/1999/xlink" x="0px" y="0px"
	 viewBox="0 0 107 33" style="enable-background:new 0 0 107 33;" xml:space="preserve">
<style type="text/css">
	.st0{fill:#FF4C60;}
	.st1{fill:#FFFFFF;}
</style>
<path id="_x2E_" class="st0" d="M105.5,26c0.3,0,0.5-0.1,0.6-0.3c0.2-0.2,0.3-0.4,0.3-0.6l0,0v-4.8c0-0.3-0.1-0.5-0.3-0.7
	s-0.4-0.3-0.6-0.3l0,0h-4.8c-0.3,0-0.5,0.1-0.7,0.3c-0.2,0.2-0.3,0.4-0.3,0.7l0,0v4.8c0,0.3,0.1,0.5,0.3,0.6
	c0.2,0.2,0.4,0.3,0.7,0.3l0,0H105.5z"/>
<g>
	<path class="st1" d="M11.8,27.3c-0.1,0.2-0.3,0.4-0.6,0.5c-0.3,0.2-0.7,0.3-1.1,0.4c-0.4,0.1-0.8,0.2-1.2,0.2c-0.4,0-0.7-0.1-1-0.2
		c-0.1-0.1-0.3-0.3-0.4-0.6c-0.1-0.3-0.2-0.7-0.3-1.2c-0.1-0.5-0.2-1-0.2-1.6C7,24.3,7,23.6,7,22.9c-0.9,0.3-1.7,0.5-2.4,0.7
		c-0.7,0.2-1.1,0.3-1.3,0.2c-0.4,0-0.7-0.2-1-0.5c-0.3-0.3-0.5-0.6-0.7-1c-0.2-0.4-0.2-0.8-0.2-1.2c0-0.4,0.1-0.7,0.4-1
		C1.8,20,2,19.9,2.3,19.7c0.3-0.2,0.7-0.4,1.3-0.5c0.5-0.2,1.1-0.4,1.8-0.6c0.7-0.2,1.4-0.3,2.2-0.4c0.2-0.7,0.4-1.3,0.6-1.9
		c0.2-0.6,0.5-1.2,0.9-1.7c0.7-1.1,1.6-2,2.7-2.7c1-0.7,2.1-1.1,3.2-1.3c1.1-0.2,2.2-0.1,3.3,0.1c1.1,0.3,2.1,0.8,3,1.5
		c1,0.8,1.8,1.8,2.4,2.8c0.6,1.1,1.1,2.1,1.4,3.2s0.5,2.2,0.6,3.3s0.1,2.1,0,3c-0.1,0.9-0.2,1.7-0.4,2.3c-0.2,0.6-0.4,1-0.7,1.2
		c-0.3,0.3-0.8,0.4-1.2,0.4c-0.5,0-0.9-0.1-1.3-0.3c-0.4-0.2-0.8-0.4-1.1-0.6c-0.3-0.3-0.5-0.5-0.5-0.7c-0.1-0.3-0.1-0.6,0.1-1.1
		c0.1-0.5,0.3-1.1,0.4-1.8c-0.6-0.6-1.3-1.1-2-1.4c-0.7-0.3-1.5-0.6-2.3-0.7c-0.8-0.1-1.7-0.2-2.5-0.1c-0.9,0-1.7,0.1-2.5,0.2
		c0.1,0.7,0.2,1.4,0.3,2s0.2,1.1,0.3,1.5c0.1,0.4,0.1,0.8,0.1,1.1C12,26.8,11.9,27.1,11.8,27.3z M21.1,20.2c0-1-0.2-1.9-0.5-2.8
		c-0.3-0.9-0.7-1.6-1.2-2.3c-0.5-0.6-1.2-1.1-1.9-1.4c-0.8-0.3-1.6-0.3-2.6-0.1c-1,0.2-1.7,0.7-2.3,1.5c-0.6,0.8-1,1.7-1.2,2.9
		c0.8,0,1.6,0.1,2.4,0.3s1.6,0.4,2.4,0.7c0.8,0.3,1.6,0.7,2.4,1.1s1.6,1,2.3,1.7c0-0.2,0-0.5,0-0.7C21,20.7,21.1,20.5,21.1,20.2z"/>
	<path class="st1" d="M30.9,21.6c0,0.1,0,0.2,0,0.2s0,0.1,0,0.2c0.6-0.9,1.2-1.7,1.8-2.3c0.6-0.6,1.3-1.2,2.1-1.8l0,0
		c0.2-0.1,0.4-0.2,0.7-0.2c0.3,0,0.6,0,0.9,0.1c0.3,0.1,0.6,0.2,0.8,0.3c0.3,0.1,0.4,0.2,0.5,0.4c0.1,0.1,0.1,0.3,0.1,0.5
		c0,0.2,0,0.4,0,0.7c0,0.3,0,0.5,0,0.8c0,0.3,0.1,0.6,0.2,0.9c0.2,0.5,0.5,0.8,0.9,0.9c0.5,0.1,0.9,0,1.3-0.3
		c0.2-0.2,0.4-0.4,0.5-0.6c0.1-0.2,0.2-0.5,0.3-0.7c0.1-0.2,0.2-0.4,0.2-0.6s0.2-0.3,0.3-0.4c0.1-0.1,0.3-0.1,0.5-0.1
		c0.2,0,0.4,0.1,0.6,0.2c0.2,0.1,0.4,0.2,0.5,0.4c0.1,0.2,0.2,0.4,0.3,0.6c0,0.2-0.1,0.6-0.2,1c-0.2,0.4-0.4,0.9-0.8,1.4
		c-0.4,0.5-0.8,1-1.3,1.4c-0.5,0.5-1.1,0.8-1.7,1.1c-0.7,0.3-1.3,0.3-1.9,0.3s-1.2-0.3-1.7-0.6c-0.5-0.3-0.9-0.7-1.2-1.2
		c-0.3-0.5-0.5-1.1-0.5-1.7l0-0.5c-0.6,0.4-1.2,0.9-1.7,1.5c-0.5,0.6-0.9,1.1-1.2,1.5c-0.1,0.2-0.3,0.3-0.6,0.5
		c-0.3,0.2-0.6,0.3-0.9,0.4s-0.6,0.1-1,0c-0.3,0-0.5-0.2-0.6-0.4c-0.1-0.2-0.2-0.4-0.3-0.7c-0.1-0.3-0.2-0.6-0.2-0.9
		c-0.1-0.3-0.1-0.7-0.1-1s0-0.6,0-0.9c0-0.4,0.1-0.8,0.1-1.2c0.1-0.4,0.1-0.8,0.2-1.2c0.1-0.4,0.2-0.8,0.3-1.1
		c0.1-0.3,0.3-0.6,0.4-0.8c0.1-0.1,0.3-0.2,0.6-0.3c0.3,0,0.6-0.1,1,0s0.6,0.1,0.9,0.2s0.5,0.2,0.5,0.4c0.1,0.1,0.1,0.3,0,0.6
		c-0.1,0.2-0.1,0.5-0.2,0.8c-0.1,0.3-0.2,0.7-0.3,1C31,20.8,31,21.2,30.9,21.6z"/>
	<path class="st1" d="M45.1,17.5c0.4,0,0.7,0,1,0.1c0.3,0.1,0.6,0.2,0.9,0.4c0.2-1,0.4-1.9,0.6-2.5c0.2-0.7,0.5-1.1,0.7-1.4
		c0.2-0.2,0.4-0.2,0.7-0.2c0.3,0,0.6,0.1,1,0.2c0.3,0.1,0.6,0.3,0.9,0.5c0.3,0.2,0.5,0.4,0.5,0.6c0.1,0.2,0.1,0.6,0,1
		s-0.3,0.9-0.4,1.5c-0.2,0.6-0.3,1.2-0.4,1.9c-0.1,0.7-0.1,1.4,0,2.1c0,0.2,0.1,0.4,0.3,0.5c0.1,0.1,0.3,0.2,0.5,0.3
		c0.2,0.1,0.4,0.1,0.6,0c0.2,0,0.4-0.1,0.6-0.3c0.2-0.2,0.4-0.4,0.5-0.6c0.1-0.2,0.2-0.5,0.3-0.7s0.2-0.4,0.2-0.6s0.2-0.3,0.3-0.4
		c0.1-0.1,0.3-0.1,0.5-0.1c0.2,0,0.4,0.1,0.6,0.2c0.2,0.1,0.4,0.2,0.5,0.4c0.1,0.2,0.2,0.4,0.3,0.6c0,0.2-0.1,0.6-0.2,1
		c-0.2,0.4-0.4,0.9-0.8,1.4s-0.8,1-1.3,1.4c-0.5,0.5-1.1,0.8-1.7,1.1c-0.8,0.3-1.6,0.4-2.4,0.2c-0.8-0.2-1.4-0.7-1.8-1.4
		c-0.4,0.5-0.8,0.8-1.2,1.1c-0.5,0.3-0.9,0.4-1.4,0.4c-0.5,0-1,0-1.5-0.2s-0.9-0.4-1.2-0.7c-0.4-0.3-0.6-0.8-0.8-1.3
		c-0.2-0.5-0.3-1.1-0.3-1.8c0-0.7,0.1-1.3,0.4-1.8s0.6-1,0.9-1.4c0.4-0.4,0.8-0.7,1.3-1C44.1,17.6,44.6,17.5,45.1,17.5z M46.9,21.4
		c0.1-0.6,0-1-0.3-1.2c-0.3-0.2-0.5-0.4-0.8-0.4c-0.2,0-0.4,0-0.6,0.1c-0.2,0.1-0.3,0.2-0.4,0.3c-0.1,0.2-0.2,0.3-0.3,0.5
		c-0.1,0.2-0.1,0.4-0.1,0.6c0,0.4,0.2,0.7,0.4,1c0.2,0.3,0.5,0.4,0.9,0.4c0.3,0,0.6-0.2,0.8-0.4C46.7,22,46.8,21.7,46.9,21.4z"/>
	<path class="st1" d="M55.5,21.7c-0.1,0.4-0.3,0.6-0.6,0.6c-0.3,0-0.6,0-0.8-0.1s-0.5-0.3-0.7-0.6c-0.2-0.2-0.2-0.5-0.1-0.7
		c0.2-0.5,0.4-1.2,0.5-1.8c0.1-0.7,0.1-1.4,0-2c-0.1-0.4,0-0.7,0.2-0.9c0.2-0.2,0.5-0.3,0.8-0.2s0.6,0.2,0.9,0.4
		c0.3,0.2,0.5,0.5,0.6,0.9c0.3-0.1,0.7-0.1,1.1-0.1c0.4,0,0.7,0,1,0.1c0.3,0.1,0.6,0.2,0.9,0.4c0.3,0.2,0.4,0.4,0.6,0.7
		c0,0,0,0.1,0,0.1c0.1,0.2,0.1,0.4,0.1,0.7s0,0.5,0,0.7c0,0.2,0,0.5,0,0.7c0,0.2,0,0.5,0.1,0.7c0.1,0.3,0.2,0.5,0.4,0.6
		c0.2,0.2,0.4,0.3,0.6,0.3c0.2,0.1,0.5,0.1,0.7,0c0.2,0,0.5-0.2,0.7-0.3c0.2-0.2,0.4-0.4,0.5-0.6s0.2-0.5,0.3-0.7
		c0.1-0.2,0.2-0.4,0.2-0.6c0.1-0.2,0.2-0.3,0.3-0.4c0.1-0.1,0.3-0.1,0.5-0.1c0.2,0,0.4,0.1,0.6,0.2c0.2,0.1,0.4,0.2,0.5,0.4
		c0.1,0.2,0.2,0.4,0.3,0.6c0,0.2-0.1,0.6-0.2,1c-0.2,0.4-0.4,0.9-0.8,1.4c-0.3,0.5-0.7,1-1.2,1.4c-0.5,0.5-1,0.8-1.7,1.1
		C61,26,60.4,26.1,59.8,26c-0.6-0.1-1.1-0.3-1.6-0.6c-0.5-0.3-0.8-0.7-1.1-1.2s-0.5-1.1-0.5-1.7c0-0.8,0-1.5,0.1-2.2
		c0-0.3,0-0.5-0.1-0.6c-0.1-0.1-0.3-0.1-0.5,0C56,20.3,55.8,20.9,55.5,21.7z"/>
	<path class="st1" d="M64.6,17.6c0.1-0.1,0.3-0.1,0.5-0.1s0.5,0,0.7,0.1c0.2,0.1,0.5,0.1,0.7,0.2c0.2,0.1,0.3,0.2,0.4,0.3
		c0.1,0.1,0.1,0.3,0,0.5c-0.1,0.2-0.1,0.5-0.2,0.8c-0.1,0.3-0.1,0.6-0.2,0.9c0,0.3,0,0.6,0.1,0.9c0.1,0.3,0.2,0.5,0.4,0.6
		c0.2,0.2,0.4,0.3,0.6,0.3c0.2,0.1,0.5,0.1,0.7,0c0.2,0,0.5-0.2,0.7-0.3c0.2-0.2,0.4-0.4,0.5-0.6s0.2-0.5,0.3-0.7s0.2-0.4,0.2-0.6
		c0.1-0.2,0.2-0.3,0.3-0.4c0.1-0.1,0.3-0.1,0.5-0.1c0.2,0,0.4,0.1,0.6,0.2c0.2,0.1,0.4,0.2,0.5,0.4c0.2,0.2,0.2,0.4,0.3,0.6
		c0,0.2,0,0.6-0.2,1c-0.2,0.4-0.4,0.9-0.7,1.4s-0.7,1-1.2,1.4c-0.5,0.5-1,0.8-1.7,1.1C67.6,26,67,26.1,66.4,26
		c-0.6-0.1-1.1-0.3-1.6-0.6c-0.5-0.3-0.8-0.7-1.1-1.2c-0.3-0.5-0.5-1.1-0.5-1.7c0-0.6,0-1.2,0.1-1.8c0.1-0.6,0.2-1.1,0.4-1.5
		c0.2-0.4,0.3-0.8,0.5-1.1C64.3,17.8,64.4,17.7,64.6,17.6z M68.6,14.6c0,0.6-0.2,1.2-0.7,1.6c-0.4,0.4-1,0.7-1.6,0.7
		s-1.2-0.2-1.6-0.7c-0.4-0.4-0.7-1-0.7-1.6c0-0.6,0.2-1.2,0.7-1.6c0.4-0.4,1-0.7,1.6-0.7s1.2,0.2,1.6,0.7
		C68.4,13.4,68.6,14,68.6,14.6z"/>
	<path class="st1" d="M73.7,17.5c1.1,0,2,0.3,2.6,1c0.2-0.3,0.3-0.5,0.5-0.6c0.1-0.1,0.3-0.1,0.6-0.1c0.2,0,0.5,0,0.7,0.1
		c0.2,0.1,0.5,0.1,0.6,0.2c0.2,0.1,0.3,0.2,0.4,0.3c0.1,0.1,0.1,0.3,0,0.5c-0.1,0.2-0.1,0.4-0.2,0.7s-0.1,0.5-0.2,0.8
		c0,0.3,0,0.6,0.1,0.9c0.1,0.3,0.2,0.5,0.3,0.6c0.2,0.2,0.4,0.3,0.6,0.3s0.4,0.1,0.7,0c0.2,0,0.4-0.2,0.7-0.3
		c0.2-0.2,0.4-0.4,0.5-0.6c0.1-0.2,0.2-0.5,0.3-0.7s0.2-0.4,0.2-0.6c0.1-0.2,0.2-0.3,0.3-0.4c0.1-0.1,0.3-0.1,0.5-0.1
		c0.2,0,0.4,0.1,0.6,0.2c0.2,0.1,0.4,0.2,0.5,0.4c0.1,0.2,0.2,0.4,0.3,0.6c0,0.2-0.1,0.6-0.2,1c-0.2,0.4-0.4,0.9-0.8,1.4
		s-0.8,1-1.3,1.4c-0.5,0.5-1.1,0.8-1.7,1.1c-0.9,0.4-1.7,0.4-2.4,0.1c-0.7-0.3-1.3-0.7-1.7-1.4c-0.4,0.4-0.8,0.8-1.2,1
		S74,26,73.5,26c-0.5,0-1,0-1.5-0.2s-0.9-0.4-1.2-0.7c-0.4-0.3-0.6-0.8-0.8-1.3c-0.2-0.5-0.3-1.1-0.3-1.8c0-0.7,0.1-1.3,0.4-1.8
		c0.2-0.6,0.6-1,0.9-1.4s0.8-0.7,1.3-1C72.7,17.6,73.2,17.5,73.7,17.5z M75.5,21.4c0-0.3,0-0.5,0-0.7c-0.1-0.2-0.1-0.4-0.3-0.5
		c-0.1-0.1-0.2-0.2-0.4-0.3c-0.1-0.1-0.3-0.1-0.4-0.1c-0.2,0-0.4,0-0.6,0.1c-0.2,0.1-0.3,0.2-0.4,0.3c-0.1,0.2-0.2,0.3-0.3,0.5
		c-0.1,0.2-0.1,0.4-0.1,0.6c0,0.4,0.2,0.7,0.4,1c0.2,0.3,0.5,0.4,0.8,0.4c0.3,0,0.6-0.2,0.8-0.4C75.3,22,75.5,21.7,75.5,21.4z"/>
	<path class="st1" d="M85.4,21.6c0,0.1,0,0.2,0,0.2s0,0.1,0,0.2c0.6-0.9,1.2-1.7,1.8-2.3s1.3-1.2,2.1-1.8l0,0
		c0.2-0.1,0.4-0.2,0.7-0.2c0.3,0,0.6,0,0.9,0.1c0.3,0.1,0.6,0.2,0.8,0.3c0.3,0.1,0.4,0.2,0.5,0.4c0.1,0.1,0.1,0.3,0.1,0.5
		c0,0.2,0,0.4,0,0.7s0,0.5,0,0.8c0,0.3,0.1,0.6,0.2,0.9c0.2,0.5,0.5,0.8,0.9,0.9c0.5,0.1,0.9,0,1.3-0.3c0.2-0.2,0.4-0.4,0.5-0.6
		s0.2-0.5,0.3-0.7s0.2-0.4,0.2-0.6s0.2-0.3,0.3-0.4c0.1-0.1,0.3-0.1,0.5-0.1c0.2,0,0.4,0.1,0.6,0.2c0.2,0.1,0.4,0.2,0.5,0.4
		c0.1,0.2,0.2,0.4,0.3,0.6c0,0.2-0.1,0.6-0.2,1c-0.2,0.4-0.4,0.9-0.8,1.4s-0.8,1-1.3,1.4c-0.5,0.5-1.1,0.8-1.7,1.1
		c-0.6,0.3-1.3,0.3-1.9,0.3s-1.2-0.3-1.7-0.6c-0.5-0.3-0.9-0.7-1.2-1.2c-0.3-0.5-0.5-1.1-0.5-1.7l0-0.5c-0.6,0.4-1.2,0.9-1.7,1.5
		c-0.5,0.6-0.9,1.1-1.2,1.5c-0.1,0.2-0.3,0.3-0.6,0.5c-0.3,0.2-0.6,0.3-0.9,0.4c-0.3,0.1-0.7,0.1-1,0c-0.3,0-0.5-0.2-0.6-0.4
		c-0.1-0.2-0.2-0.4-0.3-0.7s-0.2-0.6-0.2-0.9s-0.1-0.7-0.1-1c0-0.3,0-0.6,0-0.9c0-0.4,0.1-0.8,0.1-1.2c0.1-0.4,0.1-0.8,0.2-1.2
		c0.1-0.4,0.2-0.8,0.3-1.1c0.1-0.3,0.3-0.6,0.4-0.8c0.1-0.1,0.3-0.2,0.6-0.3c0.3,0,0.6-0.1,1,0s0.6,0.1,0.9,0.2
		c0.3,0.1,0.5,0.2,0.5,0.4c0.1,0.1,0.1,0.3,0,0.6c-0.1,0.2-0.1,0.5-0.2,0.8c-0.1,0.3-0.2,0.7-0.3,1C85.4,20.8,85.4,21.2,85.4,21.6z"
		/>
</g>
</svg>
