<svg width="96px" height="80px" xmlns="http://www.w3.org/2000/svg" xmlns:xlink="http://www.w3.org/1999/xlink" viewBox="0 0 2912.3 2900.2">
  <defs>
    <linearGradient id="a" x1="2019.87" y1="3518.28" x2="2083.94" y2="2898.99" gradientUnits="userSpaceOnUse">
      <stop offset="0" stop-color="#444b8c"/>
      <stop offset="1" stop-color="#26264f"/>
    </linearGradient>
    <linearGradient id="b" x1="1575.28" y1="1790.36" x2="899.05" y2="1868.66" gradientUnits="userSpaceOnUse">
      <stop offset="0" stop-color="#444b8c"/>
      <stop offset="0.39" stop-color="#383c74"/>
      <stop offset="1" stop-color="#26264f"/>
    </linearGradient>
    <linearGradient id="c" x1="2726.17" y1="548.52" x2="911.03" y2="3310.39" xlink:href="#a"/>
    <linearGradient id="d" x1="2493.85" y1="900.95" x2="372.63" y2="4011.61" gradientUnits="userSpaceOnUse">
      <stop offset="0" stop-color="#ffc444"/>
      <stop offset="1" stop-color="#f36f56"/>
    </linearGradient>
    <linearGradient id="e" x1="2583.88" y1="1338.22" x2="1925.71" y2="2414.18" gradientUnits="userSpaceOnUse">
      <stop offset="0" stop-color="#ff9085"/>
      <stop offset="1" stop-color="#fb6fbb"/>
    </linearGradient>
    <linearGradient id="f" x1="1575.53" y1="1485.54" x2="1423.53" y2="1959.88" xlink:href="#e"/>
    <linearGradient id="g" x1="1700.41" y1="1642.23" x2="1615.99" y2="1905.68" xlink:href="#e"/>
    <linearGradient id="h" x1="1838.61" y1="1714.93" x2="1786.23" y2="1878.4" xlink:href="#e"/>
    <linearGradient id="i" x1="2065.54" y1="1280.11" x2="1830.53" y2="2013.54" xlink:href="#e"/>
    <linearGradient id="j" x1="2203.09" y1="1338.46" x2="1994.01" y2="1990.93" xlink:href="#e"/>
    <linearGradient id="k" x1="2368.03" y1="1234.19" x2="2116.1" y2="2020.4" xlink:href="#e"/>
    <linearGradient id="l" x1="2485.13" y1="1390" x2="2300.33" y2="1966.71" xlink:href="#e"/>
    <linearGradient id="m" x1="2597.94" y1="1561.35" x2="2486.84" y2="1908.07" xlink:href="#e"/>
    <linearGradient id="n" x1="-3446.14" y1="3272.75" x2="-3340.06" y2="3272.75" gradientTransform="matrix(-1, 0, 0, 1, -434.63, 0)" gradientUnits="userSpaceOnUse">
      <stop offset="0" stop-color="#40447e"/>
      <stop offset="1" stop-color="#3c3b6b"/>
    </linearGradient>
    <linearGradient id="o" x1="-3078.88" y1="3090.39" x2="-3008.75" y2="3090.39" xlink:href="#n"/>
    <linearGradient id="p" x1="-3394.36" y1="3267.6" x2="-3355.87" y2="3347.32" gradientTransform="matrix(-1, 0, 0, 1, -434.63, 0)" gradientUnits="userSpaceOnUse">
      <stop offset="0" stop-color="#311944"/>
      <stop offset="1" stop-color="#a03976"/>
    </linearGradient>
    <linearGradient id="q" x1="-3023.9" y1="2952.04" x2="-3082.75" y2="3214.2" xlink:href="#p"/>
    <linearGradient id="r" x1="-3039.04" y1="3152.6" x2="-3310.92" y2="2880.72" gradientTransform="matrix(-1, 0, 0, 1, -434.63, 0)" gradientUnits="userSpaceOnUse">
      <stop offset="0" stop-color="#ab316d"/>
      <stop offset="1" stop-color="#792d3d"/>
    </linearGradient>
    <linearGradient id="t" x1="-2859" y1="2972.56" x2="-3130.88" y2="2700.68" xlink:href="#r"/>
    <linearGradient id="u" x1="-3215.71" y1="2121.63" x2="-3366.15" y2="2585.64" gradientTransform="matrix(-1, 0, 0, 1, -434.63, 0)" gradientUnits="userSpaceOnUse">
      <stop offset="0" stop-color="#aa80f9"/>
      <stop offset="1" stop-color="#6165d7"/>
    </linearGradient>
    <linearGradient id="v" x1="-2724.77" y1="2432.25" x2="-2771.38" y2="2385.64" xlink:href="#p"/>
    <linearGradient id="w" x1="-3016.98" y1="2186.06" x2="-3167.42" y2="2650.07" xlink:href="#u"/>
    <linearGradient id="x" x1="-3222.41" y1="2119.45" x2="-3372.85" y2="2583.47" xlink:href="#u"/>
    <linearGradient id="y" x1="-3412.32" y1="2238.64" x2="-3291.48" y2="2039.26" xlink:href="#p"/>
    <linearGradient id="z" x1="-3420.87" y1="2233.45" x2="-3300.04" y2="2034.07" xlink:href="#p"/>
    <linearGradient id="aa" x1="-3418.69" y1="2234.78" x2="-3297.85" y2="2035.4" xlink:href="#p"/>
    <linearGradient id="ab" x1="1599.64" y1="432.57" x2="627.04" y2="2050.62" gradientTransform="matrix(1, 0, 0, 1, 0.87, -0.71)" xlink:href="#u"/>
    <linearGradient id="ac" x1="1164.42" y1="1156.41" x2="536.42" y2="2135.14" gradientTransform="matrix(1.01, 0.03, 0, 1, -3.06, -15.58)" gradientUnits="userSpaceOnUse">
      <stop offset="0" stop-color="#e38ddd"/>
      <stop offset="1" stop-color="#9571f6"/>
    </linearGradient>
  </defs>
  <g style="isolation: isolate">
    <g>
      <path d="M1141.4,635.4c-97.8,140,16.8,367-128.3,472.3-141.3,102.5-314.8-65.5-448,22.7-197.5,130.9-161.4,729.9,127.4,1102,86.8,111.9,159.4,155.5,191.5,282.1,69,271.7-173.5,433.4-127.4,567.8,104,302.7,1702.2,556.7,2343.5-352.9,299.5-424.9,344.3-1038.3,76.7-1504.2C2693.3,383.3,1360.8,321.2,1141.4,635.4Z" transform="translate(-441.3 -461)" style="fill: #f4f7fa"/>
      <g>
        <path d="M1313.5,1054c37.6,3.1,70.9-27.3,74.3-68s-24.3-76.3-61.9-79.5l-5.8-.2a416.3,416.3,0,0,0-9.8-61.6q2.7-1.1,5.4-2.4c34.2-17.6,49.2-61.8,33.4-98.6s-56.5-52.5-90.8-34.8a53.9,53.9,0,0,0-5.2,3,393,393,0,0,0-37-47.6c1.2-1.7,2.4-3.3,3.6-5.1,21.7-33.7,14.4-79.7-16.5-102.8s-73.5-14.5-95.3,19.2c-1.1,1.7-2.1,3.5-3,5.2a354.1,354.1,0,0,0-54.5-20.8,61.7,61.7,0,0,0,.9-6.2c3.4-40.7,10.8-86.7-26.9-89.3-87.1-5.9-105.9,37.1-109.3,77.8q-.3,3.2-.3,6.3A343.6,343.6,0,0,0,857.7,560c-.7-1.9-1.3-3.8-2.2-5.7-15.8-36.9-12.9-61.4-48.9-47.6-78.5,30.1-91,74.5-75.2,111.4.8,1.9,1.8,3.8,2.7,5.6a380.1,380.1,0,0,0-44.5,40.7c-1.5-1.3-3-2.6-4.6-3.8-30.9-23.1-73.5-14.6-95.3,19.1s-14.4,79.7,16.4,102.8a52.5,52.5,0,0,0,4.9,3.3,427.6,427.6,0,0,0-20,59.1l-5.7-.8c-37.6-3.1-70.9,27.3-74.3,68s24.2,76.3,61.8,79.5a57.2,57.2,0,0,0,5.8.2,429.8,429.8,0,0,0,9.8,61.6l-5.3,2.4c-34.3,17.6-49.2,61.8-33.4,98.6s56.5,52.5,90.8,34.9c1.7-1,3.5-2,5.1-3.1a392.6,392.6,0,0,0,37.1,47.7c-1.2,1.6-2.5,3.2-3.6,5-21.8,33.7-14.4,79.7,16.4,102.8s97.7,12.5,119.5-21.1c1.1-1.8-22.1-1.5-21.1-3.3a353,353,0,0,0,54.4,20.8c-.3,2-.6,4.1-.8,6.2-3.4,40.7,24.3,76.3,61.9,79.5s70.9-27.3,74.3-68c.2-2.1.2-4.2.2-6.3a342.8,342.8,0,0,0,57.2-11.4q.9,2.9,2.1,5.7c15.9,36.9,56.5,52.5,90.8,34.8s49.2-61.7,33.4-98.6l-2.7-5.5a407.5,407.5,0,0,0,44.5-40.8l4.6,3.9c30.8,23.1,73.5,14.5,95.3-19.2s14.4-79.7-16.5-102.8a51.1,51.1,0,0,0-4.8-3.3,427.6,427.6,0,0,0,20-59.1ZM926.8,1216.8c-136.5-11.5-237.1-140.7-224.7-288.6S835.4,669.9,971.9,681.4,1209.1,822,1196.6,969.9,1063.4,1228.3,926.8,1216.8Z" transform="translate(-441.3 -461)" style="fill: #bfc6d1"/>
        <path d="M1315.7,842.3c34.2-17.6,49.2-61.8,33.4-98.6s-56.5-52.5-90.8-34.8a53.9,53.9,0,0,0-5.2,3,393,393,0,0,0-37-47.6c1.2-1.7,2.4-3.3,3.6-5.1,21.7-33.7,38.5-100.5,5.4-120.3-62.7-37.6-95.4,3-117.2,36.7-1.1,1.7-2.1,3.5-3,5.2a354.1,354.1,0,0,0-54.5-20.8,61.7,61.7,0,0,0,.9-6.2c1.8-22.2-5.6-42.8-18.7-57.5Q1020,591.9,1009,687.5c117.2,29.5,198.9,148.3,187.6,282.4-9.6,113.6-83.2,205.1-178.7,236.2.2,12.4.5,24.9.4,37.3-.3,33.8-2.5,67.6-4.7,101.4,9.3-1.9,18.4-4.1,27.5-6.7q.9,2.9,2.1,5.7c15.9,36.9,51.2,59.3,114.3,29.7,34.9-16.4,25.7-56.6,9.9-93.5l-2.7-5.5a407.5,407.5,0,0,0,44.5-40.8l4.6,3.9c30.8,23.1,100.1,10.1,121.8-23.6s-12.1-75.3-43-98.4a51.1,51.1,0,0,0-4.8-3.3,427.6,427.6,0,0,0,20-59.1l5.7.8c37.6,3.1,70.9-27.3,74.3-68s-24.3-76.3-61.9-79.5l-5.8-.2a416.3,416.3,0,0,0-9.8-61.6Q1313,843.7,1315.7,842.3Z" transform="translate(-441.3 -461)" style="fill: #bfc6d1"/>
        <path d="M1348.6,1044.2c37.6,3.1,70.9-27.3,74.3-68s-24.3-76.3-61.9-79.5a56.2,56.2,0,0,0-5.8-.2,429.8,429.8,0,0,0-9.8-61.6,50.5,50.5,0,0,0,5.3-2.4c34.3-17.6,49.3-61.8,33.4-98.6s-56.4-52.5-90.7-34.9l-5.2,3.1a392.6,392.6,0,0,0-37.1-47.7,45.4,45.4,0,0,0,3.6-5c21.8-33.7,14.5-79.7-16.4-102.8s-73.5-14.5-95.3,19.1l-3.1,5.3a353,353,0,0,0-54.4-20.8,61.7,61.7,0,0,0,.8-6.2c3.5-40.7-24.2-76.3-61.9-79.5s-70.8,27.3-74.3,68c-.1,2.1-.2,4.2-.2,6.3a339.6,339.6,0,0,0-57.1,11.4c-.7-1.9-1.4-3.8-2.2-5.7-15.8-36.9-56.4-52.5-90.7-34.8s-49.3,61.7-33.4,98.6c.8,1.9,1.7,3.7,2.7,5.6a380.1,380.1,0,0,0-44.5,40.7c-1.5-1.3-3-2.6-4.6-3.8-30.9-23.1-73.6-14.6-95.3,19.1s-14.4,79.7,16.4,102.8a52.5,52.5,0,0,0,4.9,3.3,427.6,427.6,0,0,0-20,59.1l-5.8-.8c-37.6-3.1-70.8,27.3-74.3,68s24.3,76.3,61.9,79.5a57.2,57.2,0,0,0,5.8.2,429.8,429.8,0,0,0,9.8,61.6l-5.3,2.4c-34.3,17.6-49.2,61.8-33.4,98.6s56.5,52.5,90.7,34.9l5.2-3.1a392.6,392.6,0,0,0,37.1,47.7c-1.2,1.6-2.5,3.2-3.6,5-21.8,33.7-14.4,79.7,16.4,102.8s73.5,14.5,95.3-19.1l3.1-5.3a353,353,0,0,0,54.4,20.8c-.3,2-.6,4.1-.8,6.2-3.4,40.7,24.3,76.3,61.9,79.5s70.9-27.3,74.3-68c.2-2.1.2-4.2.2-6.3a342.8,342.8,0,0,0,57.2-11.4q.9,2.9,2.1,5.7c15.8,36.9,56.5,52.5,90.8,34.8s49.2-61.7,33.4-98.6l-2.8-5.6a389.2,389.2,0,0,0,44.6-40.7,58.1,58.1,0,0,0,4.6,3.8c30.8,23.1,73.5,14.6,95.3-19.1s14.4-79.7-16.5-102.8l-4.8-3.3a414.4,414.4,0,0,0,19.9-59.1ZM961.9,1207c-136.5-11.5-237.1-140.7-224.7-288.6S870.5,660,1007,671.5s237.2,140.7,224.7,288.6S1098.5,1218.5,961.9,1207Z" transform="translate(-441.3 -461)" style="fill: #d8dee8"/>
      </g>
      <g>
        <path d="M2375.1,1243c45.9,3.8,86.4-33.3,90.6-82.9s-29.6-93-75.4-96.8c-2.4-.2-4.8-.2-7.1-.2a528.6,528.6,0,0,0-11.9-75.2c2.1-.8,4.3-1.8,6.5-2.9,41.7-21.4,60-75.2,40.7-120.1s-68.8-63.9-110.6-42.5a65,65,0,0,0-6.3,3.7,484.2,484.2,0,0,0-45.2-58c1.5-2,3-4,4.4-6.2,26.5-41,17.6-97.1-20-125.2s-89.6-17.8-116.2,23.3c-1.3,2.1-2.5,4.3-3.7,6.4a423.6,423.6,0,0,0-66.3-25.3c.4-2.5.8-5,1-7.6,4.2-49.6,13.2-105.7-32.7-108.8-106.1-7.3-129.1,45.2-133.3,94.8-.2,2.6-.2,5.1-.3,7.7a416.4,416.4,0,0,0-69.6,13.9c-.8-2.4-1.6-4.7-2.6-7-19.3-44.9-15.8-74.9-59.7-58-95.6,36.6-110.9,90.8-91.6,135.7,1,2.4,2.2,4.6,3.3,6.8a470.2,470.2,0,0,0-54.2,49.7c-1.8-1.7-3.7-3.2-5.6-4.7-37.6-28.2-89.6-17.7-116.2,23.3s-17.5,97.2,20.1,125.3c1.9,1.5,3.9,2.7,5.9,4a507.6,507.6,0,0,0-24.3,72l-7-.9c-45.9-3.9-86.4,33.2-90.6,82.8s29.6,93,75.4,96.9c2.4.2,4.7.2,7.1.2a529.4,529.4,0,0,0,11.9,75.1c-2.2.9-4.3,1.8-6.5,2.9-41.7,21.5-60,75.3-40.7,120.2s68.8,63.9,110.6,42.4a65,65,0,0,0,6.3-3.7,493.4,493.4,0,0,0,45.2,58.1c-1.5,1.9-3,4-4.4,6.1-26.5,41-17.6,97.1,20,125.3s119,15.3,145.5-25.8c1.4-2.1-26.8-1.8-25.6-4a424,424,0,0,0,66.3,25.4c-.4,2.5-.8,5-1,7.6-4.2,49.6,29.6,92.9,75.4,96.8s86.4-33.2,90.6-82.9c.2-2.5.2-5.1.3-7.6a428.8,428.8,0,0,0,69.6-13.9c.8,2.3,1.6,4.7,2.6,7,19.3,44.9,68.8,63.9,110.6,42.4s60-75.3,40.7-120.2c-1-2.3-2.2-4.6-3.3-6.8A478.5,478.5,0,0,0,2248,1462l5.6,4.7c37.6,28.1,89.6,17.7,116.1-23.4s17.6-97.1-20-125.3c-1.9-1.4-3.9-2.7-5.9-3.9a508.9,508.9,0,0,0,24.3-72.1C2370.4,1242.4,2372.8,1242.8,2375.1,1243ZM1904,1441.3c-166.4-14-289-171.4-273.8-351.6s162.3-314.8,328.7-300.8,289,171.4,273.8,351.6S2070.4,1455.3,1904,1441.3Z" transform="translate(-441.3 -461)" style="fill: #bfc6d1"/>
        <path d="M2377.8,985c41.7-21.4,60-75.2,40.7-120.1s-68.8-63.9-110.6-42.5a65,65,0,0,0-6.3,3.7,484.2,484.2,0,0,0-45.2-58c1.5-2,3-4,4.4-6.2,26.5-41,46.9-122.4,6.6-146.6-76.4-45.8-116.2,3.6-142.8,44.7-1.3,2.1-2.5,4.3-3.7,6.4a423.6,423.6,0,0,0-66.3-25.3c.4-2.5.8-5,1-7.6,2.2-27-6.8-52.1-22.8-70q-15.3,116.3-28.7,233c142.8,35.9,242.4,180.6,228.6,344-11.7,138.5-101.3,250-217.8,287.9.3,15.1.7,30.3.6,45.4-.4,41.2-3.1,82.4-5.8,123.6,11.3-2.3,22.5-5,33.5-8.2.8,2.3,1.6,4.7,2.6,7,19.3,44.9,62.4,72.2,139.3,36.1,42.5-20,31.3-69,12-113.9-1-2.3-2.2-4.6-3.3-6.8A478.5,478.5,0,0,0,2248,1462l5.6,4.7c37.6,28.1,122,12.3,148.5-28.7s-14.8-91.8-52.4-120c-1.9-1.4-3.9-2.7-5.9-3.9a508.9,508.9,0,0,0,24.3-72.1c2.3.4,4.7.8,7,1,45.9,3.8,86.4-33.3,90.6-82.9s-29.6-93-75.4-96.8c-2.4-.2-4.8-.2-7.1-.2a528.6,528.6,0,0,0-11.9-75.2C2373.4,987.1,2375.6,986.1,2377.8,985Z" transform="translate(-441.3 -461)" style="fill: #bfc6d1"/>
        <path d="M2417.9,1231c45.8,3.9,86.4-33.2,90.5-82.8s-29.6-93-75.4-96.9c-2.4-.2-4.7-.2-7-.2a515.6,515.6,0,0,0-12-75.1c2.2-.9,4.4-1.8,6.5-2.9,41.8-21.5,60-75.3,40.7-120.2s-68.8-63.9-110.6-42.4c-2.1,1.1-4.2,2.4-6.3,3.6a479.7,479.7,0,0,0-45.2-58,62.5,62.5,0,0,0,4.4-6.1c26.6-41.1,17.6-97.1-20-125.3S2193.9,607,2167.4,648a60.2,60.2,0,0,0-3.7,6.5,425.1,425.1,0,0,0-66.4-25.4c.4-2.5.8-5,1-7.6,4.2-49.6-29.6-92.9-75.4-96.8s-86.3,33.2-90.5,82.9c-.2,2.5-.3,5.1-.3,7.6a426.7,426.7,0,0,0-69.6,13.9c-.8-2.3-1.7-4.7-2.7-7-19.2-44.9-68.8-63.9-110.5-42.4s-60,75.3-40.7,120.2c1,2.3,2.1,4.6,3.3,6.8a479.4,479.4,0,0,0-54.3,49.6c-1.8-1.6-3.6-3.2-5.6-4.7-37.6-28.1-89.6-17.7-116.1,23.4s-17.6,97.1,20,125.3c2,1.4,3.9,2.7,5.9,3.9a521.9,521.9,0,0,0-24.3,72.1c-2.3-.4-4.6-.8-7-1-45.8-3.8-86.4,33.3-90.5,82.9s29.5,93,75.4,96.8c2.3.2,4.7.2,7,.2a517,517,0,0,0,12,75.2,53.7,53.7,0,0,0-6.5,2.9c-41.8,21.4-60,75.2-40.7,120.1s68.8,63.9,110.6,42.5l6.3-3.7a464.6,464.6,0,0,0,45.2,58,70.1,70.1,0,0,0-4.5,6.2c-26.5,41-17.5,97.1,20.1,125.2s89.6,17.7,116.1-23.3a70.2,70.2,0,0,0,3.7-6.4,424.7,424.7,0,0,0,66.4,25.3c-.4,2.5-.8,5-1,7.6-4.2,49.6,29.5,93,75.4,96.8s86.3-33.2,90.5-82.8c.2-2.6.3-5.1.3-7.7a416.4,416.4,0,0,0,69.6-13.9c.8,2.4,1.7,4.7,2.6,7,19.3,44.9,68.8,63.9,110.6,42.4s60-75.2,40.7-120.1a71.3,71.3,0,0,0-3.3-6.8,471.1,471.1,0,0,0,54.3-49.7,63.3,63.3,0,0,0,5.6,4.7c37.6,28.2,89.6,17.7,116.1-23.3s17.6-97.2-20-125.3c-2-1.5-3.9-2.7-5.9-4a530.9,530.9,0,0,0,24.3-72.1A53.6,53.6,0,0,0,2417.9,1231Zm-471.2,198.4c-166.4-14-288.9-171.4-273.8-351.6S1835.3,762.9,2001.7,777s288.9,171.4,273.8,351.5S2113.1,1443.4,1946.7,1429.4Z" transform="translate(-441.3 -461)" style="fill: #d8dee8"/>
      </g>
      <g>
        <g>
          <path d="M2341.3,2961a121.6,121.6,0,0,1-80.8-91.8L2200.4,2572l-513.8,18.2-63.2,309.7c-8.9,43.4,26.6,86.9,67.4,102.9l215,84.1a280.3,280.3,0,0,0,125.6,18.2l454.3-38.9a28.2,28.2,0,0,0,25.5-24.9c1.5-13.4,10.8-28.5-1.8-32.7Z" transform="translate(-441.3 -461)" style="fill: #97a6b7"/>
          <path d="M2346.3,2942.9a120.8,120.8,0,0,1-80.7-90.6l-60-293.5-501.2,18-63.2,305.8a89.7,89.7,0,0,0,55.3,101.6l214.8,83a282.8,282.8,0,0,0,125.5,18l453.8-38.4a28,28,0,0,0,6.4-54.5Z" transform="translate(-441.3 -461)" style="fill: url(#a)"/>
        </g>
        <g>
          <g>
            <path d="M636.8,2769.6c-55.7,3.3-101.3-32.9-101.3-80.6V967.4c0-47.8,45.6-84.7,101.3-82.3L3213.4,996.8c40.9,1.7,74,36.2,74,76.9V2537.9c0,40.6-33.1,75.6-74,78.1Z" transform="translate(-441.3 -461)" style="fill: url(#b)"/>
            <path d="M659.9,2769.6c-55.7,3.3-101.3-32.9-101.3-80.6V967.4c0-47.8,45.6-84.7,101.3-82.3L3236.6,996.8c40.9,1.7,74,36.2,74,76.9V2537.9c0,40.6-33.1,75.6-74,78.1Z" transform="translate(-441.3 -461)" style="fill: url(#c)"/>
            <path d="M3236.6,1031.2,659.9,925.2c-29.7-1.2-54,18.5-54,44V2686.4c0,25.5,24.3,44.8,54,43.1l2576.7-148c21.9-1.3,39.6-20,39.6-41.8V1072.3C3276.2,1050.5,3258.5,1032.1,3236.6,1031.2Z" transform="translate(-441.3 -461)" style="fill: #d8dee8;opacity: 0.30000000000000004;mix-blend-mode: multiply"/>
            <path d="M659.9,2583.2c-11.6.6-21-7-21-17V970.5c0-10,9.4-17.7,21-17.2l2576.7,102.1a16.2,16.2,0,0,1,15.5,16V2439.6a16.5,16.5,0,0,1-15.5,16.2Z" transform="translate(-441.3 -461)" style="fill: url(#d)"/>
          </g>
          <path d="M2967.6,2509.4c-216.8-134.1-65.4-515.3-308.8-706.9-245.5-193.1-590.8,43.7-762.7-156.3-128-148.9,21.7-328.7-100.5-468.7-191.7-219.7-682.3,82.4-907.8-134-32-30.7-64.3-77.3-82.7-152.1l-145.2-6.3c-55.7-2.4-101.3,34.5-101.3,82.3V2689c0,47.7,45.6,83.9,101.3,80.6L3236.6,2616c40.9-2.5,74-37.5,74-78.1v-26.1C3139.5,2569.9,3034.9,2551,2967.6,2509.4Z" transform="translate(-441.3 -461)" style="fill: #fff;opacity: 0.6000000000000001;mix-blend-mode: soft-light"/>
        </g>
        <g>
          <polygon points="361.7 1992 981.9 1966.1 981.9 1641 361.7 1656 361.7 1992" style="fill: #f4f7fa;mix-blend-mode: soft-light"/>
          <g style="mix-blend-mode: soft-light">
            <g style="opacity: 0.7000000000000001">
              <polygon points="2023.1 1432.2 2117.3 1430.9 2117.3 742 2023.1 739.6 2023.1 1432.2" style="fill: #f4f7fa"/>
              <polygon points="1853.1 1434.5 1949.1 1433.2 1949.1 1085.4 1853.1 1084.9 1853.1 1434.5" style="fill: #f4f7fa"/>
              <polygon points="1679.7 1436.9 1777.6 1435.5 1777.6 666.7 1679.7 663.9 1679.7 1436.9" style="fill: #f4f7fa"/>
              <polygon points="1502.9 1439.3 1602.8 1438 1602.8 776.8 1502.9 774.5 1502.9 1439.3" style="fill: #f4f7fa"/>
              <polygon points="1322.6 1441.8 1424.5 1440.4 1424.5 1261.4 1322.6 1261.8 1322.6 1441.8" style="fill: #f4f7fa"/>
              <polygon points="1138.7 1444.4 1242.6 1442.9 1242.6 1017.9 1138.7 1016.9 1138.7 1444.4" style="fill: #f4f7fa"/>
              <polygon points="951 1446.9 1057 1445.5 1057 826.7 951 824.6 951 1446.9" style="fill: #f4f7fa"/>
              <polygon points="759.5 1449.6 867.7 1448.1 867.7 992.2 759.5 991.1 759.5 1449.6" style="fill: #f4f7fa"/>
              <polygon points="563.9 1452.3 674.4 1450.8 674.4 736.3 563.9 733.7 563.9 1452.3" style="fill: #f4f7fa"/>
              <polygon points="364.3 1455 477.1 1453.5 477.1 651.1 364.3 647.9 364.3 1455" style="fill: #f4f7fa"/>
            </g>
          </g>
          <polygon points="2203.8 1915.1 2667.3 1895.8 2667.3 1848.9 2203.8 1867 2203.8 1915.1" style="fill: #f4f7fa;mix-blend-mode: soft-light"/>
          <polygon points="2203.8 1293.1 2667.3 1290.3 2667.3 1243.4 2203.8 1244.9 2203.8 1293.1" style="fill: #f4f7fa;mix-blend-mode: soft-light"/>
          <polygon points="2203.8 1210.6 2667.3 1210 2667.3 1163.1 2203.8 1162.4 2203.8 1210.6" style="fill: #f4f7fa;mix-blend-mode: soft-light"/>
          <polygon points="2203.8 1848.5 2279.4 1845.7 2279.4 1771.8 2203.8 1774.3 2203.8 1848.5" style="fill: #f4f7fa;mix-blend-mode: soft-light"/>
          <g style="mix-blend-mode: soft-light">
            <path d="M973.3,2248.4c39.4,1.5,45.3-21.3,84.1-23.5,65.8-3.8,81.9,60.2,145.3,59.3,51.7-.8,64.7-44.1,116-39.3,38,3.6,45.5,28.9,82.7,32.6a93.2,93.2,0,0,0,21.8-.6v150.3L803,2453V2187.1c33.2,2.4,57.5,9.9,74.9,17.6C919.7,2223,933.6,2246.9,973.3,2248.4Z" transform="translate(-441.3 -461)" style="fill: #f4f7fa"/>
          </g>
          <polygon points="2203.8 1097 2667.3 1099.5 2667.3 692.9 2203.8 679.3 2203.8 1097" style="fill: #f4f7fa;mix-blend-mode: soft-light"/>
          <polygon points="364.3 1619.1 2117.3 1580 2117.3 1506.5 364.3 1538.3 364.3 1619.1" style="fill: #f4f7fa;mix-blend-mode: soft-light"/>
          <polygon points="1057 1963 2117.3 1918.8 2117.3 1608.4 1057 1633.8 1057 1963" style="fill: #f4f7fa;mix-blend-mode: soft-light"/>
        </g>
      </g>
      <g>
        <g>
          <g>
            <path d="M1705.1,1552.7v795.8c0,26.5,19.7,47.4,44,46.9l1430-32.1c21.9-.5,39.6-21.2,39.6-46.2V1563.3Z" transform="translate(-441.3 -461)" style="fill: #fff"/>
            <path d="M3179.1,1467.2l-1430-15.1c-24.3-.2-44,21-44,47.4V1581l1513.6,9.2v-77.3C3218.7,1487.9,3201,1467.4,3179.1,1467.2Z" transform="translate(-441.3 -461)" style="fill: url(#e)"/>
            <path d="M1806.1,1516.3c0,11.7-8.7,21.1-19.5,21s-19.5-9.6-19.5-21.3,8.7-21.2,19.5-21.1S1806.1,1504.6,1806.1,1516.3Z" transform="translate(-441.3 -461)" style="fill: #fff"/>
          </g>
          <g>
            <polygon points="1566.9 1825.1 1456.1 1827.1 1456.1 1233.8 1566.9 1234.1 1566.9 1825.1" style="fill: #d8dee8"/>
            <polygon points="1566.9 1825.1 1456.1 1827.1 1456.1 1545.5 1566.9 1544.5 1566.9 1825.1" style="fill: url(#f)"/>
            <polygon points="1719.7 1822.2 1610.1 1824.3 1610.1 1234.2 1719.7 1234.4 1719.7 1822.2" style="fill: #d8dee8"/>
            <polygon points="1719.7 1822.2 1610.1 1824.3 1610.1 1684.2 1719.7 1682.7 1719.7 1822.2" style="fill: url(#g)"/>
            <polygon points="1870.8 1819.4 1762.3 1821.4 1762.3 1234.5 1870.8 1234.7 1870.8 1819.4" style="fill: #d8dee8"/>
            <polygon points="1870.8 1819.4 1762.3 1821.4 1762.3 1748.2 1870.8 1746.5 1870.8 1819.4" style="fill: url(#h)"/>
            <polygon points="2020.2 1816.6 1913 1818.6 1913 1234.8 2020.2 1235 2020.2 1816.6" style="fill: #d8dee8"/>
            <polygon points="2020.2 1816.6 1913 1818.6 1913 1361.2 2020.2 1361 2020.2 1816.6" style="fill: url(#i)"/>
            <polygon points="2168.1 1813.8 2062 1815.8 2062 1235.1 2168.1 1235.3 2168.1 1813.8" style="fill: #d8dee8"/>
            <polygon points="2168.1 1813.8 2062 1815.8 2062 1412.6 2168.1 1412.1 2168.1 1813.8" style="fill: url(#j)"/>
            <polygon points="2314.5 1811 2209.5 1813 2209.5 1235.4 2314.5 1235.6 2314.5 1811" style="fill: #d8dee8"/>
            <polygon points="2314.5 1811 2209.5 1813 2209.5 1319.4 2314.5 1319.3 2314.5 1811" style="fill: url(#k)"/>
            <polygon points="2459.3 1808.3 2355.4 1810.3 2355.4 1235.7 2459.3 1235.9 2459.3 1808.3" style="fill: #d8dee8"/>
            <polygon points="2459.3 1808.3 2355.4 1810.3 2355.4 1457.3 2459.3 1456.7 2459.3 1808.3" style="fill: url(#l)"/>
            <polygon points="2602.6 1805.6 2499.7 1807.5 2499.7 1236 2602.6 1236.2 2602.6 1805.6" style="fill: #d8dee8"/>
            <polygon points="2602.6 1805.6 2499.7 1807.5 2499.7 1609.1 2602.6 1607.9 2602.6 1805.6" style="fill: url(#m)"/>
          </g>
        </g>
        <g>
          <path d="M2997.1,3251.3c12.3,12.4,17.3,25.7,12.8,33.5-3.1,5.4-9.9,6.8-17.4,8.3-11.8,2.2-24.2,1.6-49.5-5.5-23.7-6.7-37.6-10.6-37.6-16.3s12.2-9.5,22.9-13.1a130.5,130.5,0,0,1,37.4-6.9Z" transform="translate(-441.3 -461)" style="fill: url(#n)"/>
          <path d="M2629.2,3049.8c5.6,2.4,12.7,6.6,14.6,13.6,3,11-8.8,22.4-27.6,40.1-14.2,13.3-33.2,31.3-39.9,26.8-4-2.8-1.6-12.8.6-22.1,2.7-11.2,8.6-28.5,23.4-47.5Z" transform="translate(-441.3 -461)" style="fill: url(#o)"/>
          <path d="M2970,3223.9l26.5,29.4a5.4,5.4,0,0,1-2.5,8.9c-5.8,1.6-13.9,2.9-21.3.8a9.1,9.1,0,0,1-4.3-2.6l-26.5-25.8Z" transform="translate(-441.3 -461)" style="fill: url(#p)"/>
          <path d="M2614.6,3032.1l14.2,20.5a6,6,0,0,1-2,8.7,52.1,52.1,0,0,1-7.1,3.2,10.7,10.7,0,0,1-11.7-2.9l-15.5-17.4Z" transform="translate(-441.3 -461)" style="fill: url(#q)"/>
          <path d="M2871.1,2600.9a497.1,497.1,0,0,0-39.9,120.6c-4.2,21.5-23.7,130,18.3,260.7,39.1,121.6,111.1,199.1,149.4,235a100.3,100.3,0,0,1-22.7,14.5,103.3,103.3,0,0,1-38.9,9.4c-117-83.5-173.7-178.1-199.4-229.6-86.9-173.7-65.1-344.3-27.1-416.4,12.4-23.7,26.5-36.5,42.5-42.2C2804.5,2534.6,2863.9,2593.6,2871.1,2600.9Z" transform="translate(-441.3 -461)" style="fill: url(#r)"/>
          <path d="M2710.8,2595.1c12.4-23.7,26.5-36.5,42.5-42.2,51.2-18.3,110.6,40.7,117.8,48a497.2,497.2,0,0,0-39.4,118.4c-35.8,8.5-85.8,28.4-110.1,75.6-39.4,76.3,17.2,167.7,29,186.7,25.8,41.7,41.5,37.8,79.7,97.8,28.9,45.4,31.1,65.1,56.2,87,29.5,25.8,66.4,33.4,96.2,35,5.8,5.9,11.3,11.2,16.2,15.8a100.3,100.3,0,0,1-22.7,14.5,103.3,103.3,0,0,1-38.9,9.4c-117-83.5-173.7-178.1-199.4-229.6C2651,2837.8,2672.8,2667.2,2710.8,2595.1Z" transform="translate(-441.3 -461)" style="opacity: 0.30000000000000004;mix-blend-mode: multiply;fill: url(#r)"/>
          <path d="M2804.9,2594.6a202.3,202.3,0,0,1-35.3,50.7c-45.9,47.9-88.9,43.4-137.5,82.8-6,4.9-49.1,40.6-65,92.7-30.6,100.4,58.4,199.3,68.2,210a107.5,107.5,0,0,1-54.2,26.9c-127.6-116.6-190-257.9-147.5-349.7,23.1-50.1,78-86.5,118.5-113.4a526.2,526.2,0,0,1,170.6-73.7Z" transform="translate(-441.3 -461)" style="fill: url(#t)"/>
          <path d="M2728.8,2328.4c-1.9,56.5,11.2,85.7-7.2,131.8-13.1,33.1-34.9,55.8-51.5,69.9a221.3,221.3,0,0,0,74.2,82.4c51.8,34,103.3,36.3,123.5,36.2,42.8-22.1,107.7-63.6,159.9-137.5,35.3-50.2,74.1-105.2,63.8-175.4-13-89.1-95.6-136.7-119-150.2-15.4-8.9-121.8-70.2-186.9-25.1C2733.3,2196.7,2730.2,2286.2,2728.8,2328.4Z" transform="translate(-441.3 -461)" style="fill: url(#u)"/>
          <path d="M2373.1,2392.5c-1.7-9.1-8.2-15.8-12-19.5s-5.2-3.7-8-7.3c-7.1-8.9-5.4-18.2-8.1-18.5s-6.5,6.4-6.3,13.3,6,10,4.9,14.3c-1.5,6-14.8,10.4-26.7,8.2-13.7-2.6-20.4-13.7-25.8-10.9-3.9,2-3.7,9.3-3.7,10,.6,13.6,18.9,28,36.8,29.9,10.2,1,14.1-2.7,26.2.4,8.1,2.1,10.9,4.9,15,3.2C2372,2412.9,2374.7,2401.2,2373.1,2392.5Z" transform="translate(-441.3 -461)" style="fill: url(#v)"/>
          <path d="M2371.1,2387.6c109.9,7.7,175.6-20.9,215.1-48.3,89.8-62.1,107.4-160.7,211.5-187.3,19-4.8,52-13.3,70.1,3.6,37.5,35.1-6.8,163.8-84.6,242.9-17.2,17.5-79.2,78.6-181.4,92.4-131.1,17.7-225.1-56.3-241.3-69.5a20.8,20.8,0,0,1-4-21C2360.2,2390.4,2370.3,2387.8,2371.1,2387.6Z" transform="translate(-441.3 -461)" style="fill: url(#w)"/>
          <path d="M2914.9,2560.4c30.9-29.3,16.3-47.4,54.4-106.3s66.7-61.1,84.6-101.5c9.2-20.9,14.9-50.9,4.7-94.1,15.7,21.1,28.5,46.7,32.9,77.3,10.3,70.2-28.5,125.2-63.8,175.4-52.2,73.9-117.1,115.4-159.9,137.5-20.2.1-71.7-2.2-123.5-36.2a217.6,217.6,0,0,1-45.7-40.3,204.4,204.4,0,0,0,55.6,20.9C2764.5,2595.3,2858.2,2614.2,2914.9,2560.4Z" transform="translate(-441.3 -461)" style="opacity: 0.30000000000000004;mix-blend-mode: multiply;fill: url(#x)"/>
          <path d="M2943.3,2124.6l8.9,30.2a49.4,49.4,0,0,0,16.6,24.5l23.8,18.6s-72.5-12.2-107.1-46l21.2-6.6a5.4,5.4,0,0,0,3.7-5.1v-22.3Z" transform="translate(-441.3 -461)" style="fill: url(#y)"/>
          <g>
            <path d="M2917.2,2139.9c-3.4-.8-28.4,3.3-35.5-8.7-9.7-16.3-.1-42.4.9-46.5,4-16.8,5.6-19.4,8.7-22.9l4.4-4.7.6-.4c3.1-2.1,14.5-5.6,17-5.7,8-.4,24.1,28,33.3,71.8.8,1.6,1.5,3.1,2.2,4.7C2950.8,2131.7,2917.5,2141.5,2917.2,2139.9Z" transform="translate(-441.3 -461)" style="fill: url(#z)"/>
            <path d="M2876.9,2049c3.6,13.3,13.7,25.9,17.5,27.4a22.5,22.5,0,0,1,6.3,4,7.7,7.7,0,0,1,1.2,1.3c5.2,7.7-5.6,21.2-2,24.3s10.7-3.9,12.5-1.8-4.8,8.6-2.9,10.9,5.6-1.3,9.3,1c1.9,1.2,1.8,2.5,4.6,6.8a47.7,47.7,0,0,0,5,6.4c6.7,6.6,20.6,6,22.2,2.1.5-1-.3-1.6-.4-4.7a28,28,0,0,1,1-6.6c1.5-5.2,7.2-10.2,12.6-16.7,9.8-12,11.2-20.4,11.5-23.2.1-1,.1-1.8.2-2.3.5-10.7-3.3-25.2-10.1-32.9-11.5-13-26.3-1.4-44-12.5-20.3-12.9-17.1-38.7-26.4-39S2870.2,2024.2,2876.9,2049Z" transform="translate(-441.3 -461)" style="fill: #26264f"/>
            <path d="M2903.9,2101.6c2-5.4,8.9-2.7,10.5,3.1s-2.4,13.4-8.2,13.7S2901.1,2108.8,2903.9,2101.6Z" transform="translate(-441.3 -461)" style="fill: url(#aa)"/>
          </g>
        </g>
      </g>
      <g>
        <path d="M1724.7,554.7,908.6,527.9c-20.2-.7-36.6,13.2-36.6,31v681.5c0,17.7,16.4,32.4,36.6,32.6l816.2,9.9c19.2.3,34.9-13.6,34.9-30.9l-.2-664.8C1759.6,569.9,1744,555.3,1724.7,554.7Z" transform="translate(-441.3 -461)" style="fill: url(#ab)"/>
        <g style="opacity: 0.30000000000000004;mix-blend-mode: soft-light">
          <path d="M1410.1,1094.8c-110.2-33.1-176.9-.4-221.5-50.8-79.7-90,74.2-259.6,13.3-411.4-12.9-32.1-36.1-65.5-76.6-97.6l-216.7-7.1c-20.2-.7-36.6,13.2-36.6,31v681.5c0,17.7,16.4,32.4,36.6,32.6l755.1,9.2C1602.6,1204.5,1519.2,1127.6,1410.1,1094.8Z" transform="translate(-441.3 -461)" style="fill: #fff"/>
        </g>
        <g>
          <path d="M1055.6,936.1l-59.7-1.3c-15.5-.3-28.1-11.6-28.1-25.3V821.7c0-13.7,12.6-24.4,28.1-24l59.7,1.5Z" transform="translate(-441.3 -461)" style="fill: #fff;opacity: 0.68"/>
          <path d="M1073.1,799.7V936.5l336.1,91.9c11.4,3.1,22.8-4.4,22.8-15V741c0-10.6-11.4-18.6-22.8-16Z" transform="translate(-441.3 -461)" style="fill: #fff;opacity: 0.68"/>
          <path d="M1449.1,806.8V948.5c37.6-5.3,66-34,66-69.3S1486.7,813.9,1449.1,806.8Z" transform="translate(-441.3 -461)" style="fill: #fff;opacity: 0.68"/>
          <path d="M1483.4,1003.4c-4.1-.1-7.7-2.7-8.4-6.4s2.2-8.1,6.8-8.8c59.2-8.5,102-53.7,102-107.4s-42.8-100.9-102-112.2c-4.7-.8-7.7-4.9-6.9-9s5.3-6.8,10-5.9c67.2,12.9,115.9,66.5,115.9,127.5s-48.6,112.4-115.9,122.1Z" transform="translate(-441.3 -461)" style="fill: #fff;mix-blend-mode: soft-light"/>
          <path d="M1483.4,1080.2c-4.1-.1-7.7-2.8-8.4-6.5s2.2-8,6.8-8.7c100.5-14.7,173-91.4,173-182.5s-72.6-171.3-173-190.6c-4.7-.9-7.7-5-6.9-9.1s5.3-6.8,10-5.9c108.4,21,186.8,107.6,186.8,206s-78.3,181.3-186.8,197.2Z" transform="translate(-441.3 -461)" style="fill: #fff;mix-blend-mode: soft-light"/>
          <path d="M1160.2,1090.7h0c-16.2,9.6-38.4,5.5-49.4-9.1l-99.9-132.4,84.4,1.5,74,96.6C1180.3,1061.8,1176.3,1081.2,1160.2,1090.7Z" transform="translate(-441.3 -461)" style="fill: #fff;opacity: 0.68"/>
        </g>
      </g>
      <g>
        <path d="M1138.5,1340.5l-373.1-3.8c-13.8-.1-25,9.1-25,20.6V1676c0,11.5,11.2,20.6,25,20.5l373-5c13.2-.2,23.8-9.4,23.8-20.6V1361C1162.2,1349.8,1151.6,1340.6,1138.5,1340.5Z" transform="translate(-441.3 -461)" style="fill: url(#ac)"/>
        <path d="M954.3,1390.2c-57.2-.3-103.9,38.5-103.9,86.8,0,31.3,43.8,103.9,74.5,150.9,12.7,19.5,46,19.1,58.7-.5,30.3-47.2,73.1-119.3,73.1-150.2C1056.7,1429.6,1011,1390.6,954.3,1390.2Zm0,133.6c-30.7.1-55.6-20.9-55.6-46.7s24.9-46.7,55.6-46.6,55.1,21,55.1,46.7S984.8,1523.7,954.3,1523.8Z" transform="translate(-441.3 -461)" style="fill: #fff;opacity: 0.68"/>
        <g style="opacity: 0.30000000000000004;mix-blend-mode: soft-light">
          <path d="M1062.7,1599.7c-41-18.2-77.6-4.2-104.2-30.8-29.8-29.8,1.1-62.3-22.5-123.2-4.6-11.7-23.1-59.5-69.9-84.4-33.9-18.1-77.8-21.4-123.5-12.6a18,18,0,0,0-2.2,8.6V1676c0,11.5,11.2,20.6,25,20.5l368-5C1116.8,1636.4,1089.1,1611.5,1062.7,1599.7Z" transform="translate(-441.3 -461)" style="fill: #fff"/>
        </g>
      </g>
    </g>
  </g>
</svg>